<svg width="50" height="39" viewBox="0 0 50 39" fill="none" xmlns="http://www.w3.org/2000/svg">
<path d="M8.33317 8.47849H6.66652V10.1742H8.33317V8.47849Z" fill="#C00D0D"/>
<path d="M49.9404 27.6638L48.673 24.4413C48.4772 23.9427 48.4405 23.4036 48.5663 22.8855L49.9738 17.1627C49.9905 17.0958 49.9988 17.0262 49.9988 16.9567V14.4132H48.3322V16.8524L46.948 22.4743C46.7364 23.3433 46.7972 24.2411 47.1247 25.0712L48.278 28.0046L45.2314 37.3043H43.4972L44.9838 28.9779C45.0338 28.7041 44.9472 28.4234 44.7538 28.2267L40.3865 23.7833C39.5981 22.983 39.1641 21.9164 39.1648 20.7803V18.6523H37.4982V20.7803C37.4973 22.37 38.1057 23.863 39.209 24.9838L43.2672 29.1126L41.6788 38.0012C41.6338 38.2488 41.7005 38.5023 41.8588 38.6956C42.0171 38.888 42.2513 38.9999 42.4988 38.9999H45.832C46.1912 38.9999 46.5096 38.7667 46.6237 38.4209L49.9569 28.247C50.0195 28.0564 50.0138 27.8503 49.9404 27.6638Z" fill="#C00D0D"/>
<path d="M42.4989 4.23939H11.5613C11.1897 2.77859 9.88305 1.69593 8.33309 1.69593H2.84495L1.42242 0.248747C1.18405 0.00542952 0.824979 -0.0666021 0.514147 0.0647436C0.203315 0.196189 0 0.505676 0 0.848148V1.78923C0 4.07496 1.82827 5.93506 4.0749 5.93506H5.06569L0.608285 12.4115C-0.140036 13.5043 -0.200874 14.9559 0.463269 16.1259C1.09655 17.1874 2.28158 17.8215 3.44981 17.8055H9.05719C9.35054 17.8088 9.623 17.9708 9.81303 18.2972L14.9996 25.7063V38.1522C14.9996 38.6211 15.3729 39 15.8329 39H19.1661C19.5595 39 19.8986 38.7211 19.9811 38.3303L22.3403 27.1306H41.6656V25.4349H21.6661C21.2728 25.4349 20.9336 25.7138 20.8511 26.1047L18.492 37.3043H16.6662V25.4349C16.6662 25.2586 16.612 25.0865 16.5112 24.9432L11.213 17.3807C10.773 16.6059 9.95385 16.1191 9.06637 16.109H3.43321C2.81155 16.137 2.21244 15.7911 1.89663 15.2612C1.56412 14.6745 1.59498 13.936 1.97417 13.3824L7.34903 5.57401C7.52735 5.3146 7.54903 4.9763 7.40567 4.69562C7.26232 4.41584 6.97736 4.23949 6.66653 4.23949H4.0749C3.32404 4.23949 2.65325 3.88847 2.21078 3.33915C2.30248 3.37392 2.39994 3.3917 2.49994 3.3917H8.33309C9.25221 3.3917 9.99975 4.15216 9.99975 5.08738C9.99975 5.55533 10.3731 5.93516 10.833 5.93516H42.4989C45.7147 5.93516 48.3321 8.59735 48.3321 11.8699V14.5235H49.9987V11.8699C49.9987 7.66292 46.6347 4.23939 42.4989 4.23939Z" fill="#C00D0D"/>
<path d="M48.3321 12.7177L48.3322 14.4132C48.3322 15.3483 47.5846 16.109 46.6654 16.109C45.7462 16.109 44.9987 15.3485 44.9987 14.4133V13.5655C44.9987 11.6952 43.5037 10.1743 41.6655 10.1743H39.1656V11.87H41.6655C42.5846 11.87 43.3322 12.6304 43.3322 13.5656V14.4134C43.3322 16.2838 44.8272 17.8047 46.6654 17.8047C48.5036 17.8047 49.9988 16.2836 49.9988 14.4132L49.9987 12.7176L48.3321 12.7177Z" fill="#C00D0D"/>
</svg>
