<svg width="24" height="24" viewBox="0 0 24 24" xmlns="http://www.w3.org/2000/svg">
<g clip-path="url(#clip0)">
<path d="M8.85156 5.15479C8.85156 7.99713 11.1685 10.3098 14.0164 10.3098C16.8643 10.3098 19.1813 7.99713 19.1813 5.15479C19.1813 2.31244 16.8643 0 14.0164 0C11.1685 0 8.85156 2.31244 8.85156 5.15479ZM18.2423 5.15479C18.2423 7.48041 16.3466 9.37244 14.0164 9.37244C11.6863 9.37244 9.79053 7.48041 9.79053 5.15479C9.79053 2.82935 11.6863 0.937317 14.0164 0.937317C16.3466 0.937317 18.2423 2.82935 18.2423 5.15479Z" fill="#00B812"/>
<path d="M13.2156 5.66857V6.00571H14.5449V6.33143H13.2156V7H12.6108V6.33143H12V6.00571H12.6108V3H14.2575C14.8044 3 15.2315 3.11619 15.5389 3.34857C15.8463 3.57714 16 3.90476 16 4.33143C16 4.7619 15.8463 5.09333 15.5389 5.32571C15.2315 5.55429 14.8044 5.66857 14.2575 5.66857H13.2156ZM15.3952 4.33714C15.3952 4.06667 15.2974 3.85905 15.1018 3.71429C14.9062 3.56952 14.6248 3.49714 14.2575 3.49714H13.2156V5.19429H14.2575C14.6208 5.19429 14.9002 5.12 15.0958 4.97143C15.2954 4.81905 15.3952 4.60762 15.3952 4.33714Z" fill="#00B812"/>
<path d="M5.43172 23.8621C5.61372 24.0452 5.91001 24.0472 6.09439 23.8659L8.37081 21.6276C8.75755 21.2416 8.87515 20.6702 8.70508 20.1734L9.19475 19.7021C9.45838 19.4479 9.8055 19.3079 10.1724 19.3079H16.4144C17.5218 19.3079 18.5685 18.8834 19.3619 18.1127C19.3946 18.081 19.1141 18.4108 23.6203 13.0356C24.2887 12.2464 24.1887 11.0613 23.3972 10.3935C22.6107 9.73198 21.4325 9.82701 20.7623 10.6026L17.9917 13.4448C17.6418 13.0151 17.1083 12.7472 16.5318 12.7472H11.296C10.5509 12.4361 9.76037 12.2786 8.94469 12.2786C6.68368 12.2786 4.70942 13.3209 3.64992 15.275C3.20355 15.1905 2.73279 15.3253 2.39411 15.6633L0.160439 17.8992C-0.0219236 18.0818 -0.0222905 18.3771 0.159706 18.5602L5.43172 23.8621ZM8.9445 13.2157C9.66368 13.2157 10.359 13.3602 11.0116 13.6451C11.071 13.6711 11.1351 13.6845 11.1998 13.6845H16.5318C17.0409 13.6845 17.471 14.0989 17.471 14.6216C17.471 15.1385 17.0498 15.5589 16.5318 15.5589H12.7009C12.4417 15.5589 12.2314 15.7688 12.2314 16.0275C12.2314 16.2864 12.4417 16.4961 12.7009 16.4961H16.5318C17.5675 16.4961 18.41 15.6553 18.41 14.6216C18.41 14.5392 18.4041 14.4576 18.3934 14.3766C21.0737 11.6269 21.4516 11.2406 21.4677 11.2214C21.8024 10.8271 22.3964 10.7771 22.7916 11.1097C23.1872 11.4435 23.2373 12.036 22.9017 12.4324L18.6903 17.4572C18.0753 18.0464 17.2679 18.3707 16.4144 18.3707H10.1724C9.56076 18.3707 8.98175 18.6042 8.54253 19.0277L8.1435 19.412L4.46505 15.741C5.32476 14.1313 6.93796 13.2157 8.9445 13.2157ZM3.05862 16.3256C3.21346 16.1711 3.45123 16.1432 3.64001 16.2597C3.72129 16.3091 3.48792 16.0971 7.70686 20.3019C7.89454 20.4892 7.88445 20.7877 7.70942 20.9624L5.76874 22.8705L1.15518 18.2308L3.05862 16.3256Z" fill="#00B812"/>
</g>
<defs>
<clipPath id="clip0">
<rect width="24" height="24" fill="currentColor"/>
</clipPath>
</defs>
</svg>
