<svg width="40" height="36" viewBox="0 0 40 36" xmlns="http://www.w3.org/2000/svg">
<path d="M5.70002 3.45247C5.514 3.32915 5.27736 3.30783 5.07072 3.39647L0.404094 5.39591C0.158782 5.50056 0.000110973 5.74182 0.000110973 6.00839C0.000110973 6.27495 0.158782 6.51621 0.404094 6.62087L5.07072 8.62031C5.15471 8.65631 5.24408 8.67428 5.33338 8.67428C5.46205 8.67428 5.59002 8.63694 5.70002 8.56431C5.88736 8.44098 6.00002 8.23174 6.00002 8.00782V4.00896C6.00002 3.78504 5.88736 3.5758 5.70002 3.45247ZM4.66674 6.99686L2.3594 6.00847L4.66674 5.01945V6.99686Z" fill="currentColor"/>
<path d="M10 3.34248C8.89734 3.34248 8 4.23957 8 5.34191C8 6.44426 8.89734 7.34135 10 7.34135C11.1026 7.34135 12 6.44426 12 5.34191C12 4.23957 11.1027 3.34248 10 3.34248ZM10 6.00844C9.63265 6.00844 9.33336 5.70923 9.33336 5.34199C9.33336 4.97475 9.63265 4.67554 10 4.67554C10.3673 4.67554 10.6666 4.97475 10.6666 5.34199C10.6666 5.70923 10.3673 6.00844 10 6.00844Z" fill="currentColor"/>
<path d="M18.6667 30.0017H17.3333V35.3335H18.6667V30.0017Z" fill="currentColor"/>
<path d="M25.3333 34.667H14.6667V36H25.3333V34.667Z" fill="currentColor"/>
<path d="M22.6667 30.0017H21.3333V35.3335H22.6667V30.0017Z" fill="currentColor"/>
<path d="M20 32.0011H18V33.3341H20V32.0011Z" fill="currentColor"/>
<path d="M24 32.0011H22V33.3341H24V32.0011Z" fill="currentColor"/>
<path d="M5.66806 7.43133C5.46275 7.31207 5.20877 7.31137 5.00205 7.43L1.50675 9.43014C0.59206 9.95796 0.0147179 10.9417 0.000108571 12.0068V12.3146C-0.00661016 13.1157 0.298702 13.8708 0.860731 14.4427C1.42276 15.0139 2.17338 15.3325 2.98002 15.3391H3.00002C4.65471 15.3391 6.00001 13.9942 6.00001 12.3399L6.00002 8.00782C6.00002 7.77063 5.87337 7.55067 5.66806 7.43133ZM4.66674 12.3399C4.66674 13.2591 3.9194 14.0061 3.0001 14.0061V14.6726L2.98612 14.0061C2.54081 14.0021 2.12409 13.8255 1.81143 13.5083C1.4994 13.191 1.3294 12.7711 1.33346 12.3207V12.016C1.34143 11.4275 1.66346 10.879 2.17143 10.5858L4.66674 9.15749V12.3399Z" fill="currentColor"/>
<path d="M39.9999 0.67662V0.0101682H33.9999C33.9992 0.0101682 33.9992 0.0101682 33.9979 0.0101682C29.2886 0.0101682 24.9359 2.75736 22.9119 7.00819L19.9999 13.1225L15.3473 3.35984C14.4887 1.47108 12.6713 0.188711 10.5887 0.0114958C9.09867 -0.0831649 7.66938 0.409352 6.55337 1.39376C5.43736 2.37879 4.77134 3.73911 4.67806 5.22268C4.67009 5.34194 4.66673 5.46191 4.66673 5.58187V15.673C4.67142 23.9367 11.3994 30.6641 19.6667 30.668C27.7014 30.668 34.2233 23.5087 34.6453 17.3039C37.6513 16.9813 40 14.43 40 11.3402V10.6738H37.7673C39.128 9.5734 40 7.89059 40 6.00847V5.34202H37.7673C39.128 4.24163 39.9999 2.55874 39.9999 0.67662ZM38.6193 6.67492C38.2946 8.93295 36.3473 10.6738 33.9999 10.6738V12.0068H38.6193C38.2946 14.2648 36.3473 16.0056 33.9999 16.0056H33.3333V16.6721C33.3333 22.3725 27.0267 29.3351 19.6667 29.3351C12.1347 29.3312 6.00337 23.2022 6.00009 15.6724V5.58187C6.00009 5.49057 6.00274 5.39989 6.00876 5.30726C6.07946 4.17688 6.5861 3.14256 7.4354 2.3934C8.21805 1.70359 9.20406 1.33237 10.2267 1.33237C10.3141 1.33237 10.402 1.33503 10.4907 1.34034C12.078 1.47561 13.4741 2.46072 14.1387 3.92226L20.0007 16.2221L24.116 7.58123C25.9207 3.7916 29.7993 1.34299 33.998 1.34299C33.9987 1.34299 33.9993 1.34299 34 1.34299H38.6194C38.2947 3.60103 36.3474 5.34186 34 5.34186V6.67484L38.6193 6.67492Z" fill="currentColor"/>
<path d="M22 16.0056V17.3386H29.8346C29.22 19.282 27.3907 20.6684 25.2986 20.671L25.286 22.004C25.2907 22.004 25.2947 22.004 25.3 22.004H27.1679C26.5532 23.9495 24.7206 25.3364 22.6259 25.3364C22.6239 25.3364 22.6219 25.3364 22.6199 25.3364H19.9999C15.2212 25.3364 11.3333 21.4495 11.3333 16.6722V16.0058H9.99992V16.6722C9.99992 22.1846 14.4859 26.6694 19.9999 26.6694H22.6192C22.6218 26.6694 22.6239 26.6694 22.6265 26.6694C25.6439 26.6694 28.2378 24.418 28.6599 21.4309L28.7299 20.933C30.1006 19.9913 31.0806 18.5031 31.3265 16.7656L31.4339 16.0058L22 16.0056Z" fill="currentColor"/>
</svg>
