<svg width="21" height="21" viewBox="0 0 21 21" xmlns="http://www.w3.org/2000/svg">
<path d="M5.86528 13.6668L5.86819 13.6667H15.3422C15.5802 13.6667 15.7895 13.5088 15.8549 13.2799L17.9883 5.81319C18.0343 5.65222 18.002 5.47917 17.9013 5.34556C17.8005 5.21194 17.6429 5.13333 17.4755 5.13333H4.63528L4.25403 3.41764C4.19972 3.17361 3.98333 3 3.73333 3H0.533333C0.23875 3 0 3.23875 0 3.53333C0 3.82792 0.23875 4.06667 0.533333 4.06667H3.30556C3.37306 4.37069 5.13 12.2771 5.23111 12.7319C4.6643 12.9783 4.26667 13.5435 4.26667 14.2C4.26667 15.0822 4.98444 15.8 5.86667 15.8H15.5378C15.8324 15.8 16.0711 15.5613 16.0711 15.2667C16.0711 14.9721 15.8324 14.7333 15.5378 14.7333H5.86667C5.57264 14.7333 5.33333 14.494 5.33333 14.2C5.33333 13.9064 5.5718 13.6675 5.86528 13.6668ZM16.7684 6.2L14.9398 12.6H6.29444L4.87222 6.2H16.7684Z" fill="currentColor"/>
<path d="M5.33398 17.3998C5.33398 18.282 6.05176 18.9998 6.93398 18.9998C7.81621 18.9998 8.53398 18.282 8.53398 17.3998C8.53398 16.5176 7.81621 15.7998 6.93398 15.7998C6.05176 15.7998 5.33398 16.5176 5.33398 17.3998ZM6.93398 16.8665C7.22801 16.8665 7.46732 17.1058 7.46732 17.3998C7.46732 17.6938 7.22801 17.9331 6.93398 17.9331C6.63996 17.9331 6.40065 17.6938 6.40065 17.3998C6.40065 17.1058 6.63996 16.8665 6.93398 16.8665Z" fill="currentColor"/>
<path d="M12.8711 17.3998C12.8711 18.282 13.5889 18.9998 14.4711 18.9998C15.3533 18.9998 16.0711 18.282 16.0711 17.3998C16.0711 16.5176 15.3533 15.7998 14.4711 15.7998C13.5889 15.7998 12.8711 16.5176 12.8711 17.3998ZM14.4711 16.8665C14.7651 16.8665 15.0044 17.1058 15.0044 17.3998C15.0044 17.6938 14.7651 17.9331 14.4711 17.9331C14.1771 17.9331 13.9378 17.6938 13.9378 17.3998C13.9378 17.1058 14.1771 16.8665 14.4711 16.8665Z" fill="currentColor"/>
</svg>
