<svg width="16" height="16" viewBox="0 0 17 16" xmlns="http://www.w3.org/2000/svg">
<path d="M14.4673 9.53763C14.1181 9.17563 13.6969 8.98208 13.2505 8.98208C12.8076 8.98208 12.3828 9.17204 12.0192 9.53405L10.8815 10.6631C10.7879 10.6129 10.6943 10.5663 10.6043 10.5197C10.4747 10.4552 10.3523 10.3943 10.2479 10.3297C9.18223 9.65591 8.21377 8.77778 7.28492 7.64158C6.83489 7.07527 6.53247 6.59857 6.31286 6.1147C6.60808 5.84588 6.8817 5.56631 7.14811 5.29749C7.24892 5.19713 7.34972 5.09319 7.45053 4.99283C8.20657 4.24014 8.20657 3.26523 7.45053 2.51254L6.46767 1.53405C6.35606 1.42294 6.24086 1.30824 6.13285 1.19355C5.91684 0.971326 5.69002 0.741935 5.45601 0.526882C5.10679 0.182796 4.68917 0 4.24994 0C3.81071 0 3.38589 0.182796 3.02587 0.526882C3.02227 0.530466 3.02227 0.530466 3.01867 0.53405L1.7946 1.76344C1.33377 2.22222 1.07095 2.78136 1.01335 3.43011C0.926944 4.4767 1.23656 5.45161 1.47418 6.08961C2.05741 7.65591 2.92866 9.10753 4.22834 10.6631C5.80523 12.5376 7.70254 14.0179 9.86987 15.0609C10.6979 15.4516 11.8032 15.914 13.0381 15.9928C13.1137 15.9964 13.1929 16 13.2649 16C14.0965 16 14.795 15.7025 15.3422 15.1111C15.3458 15.1039 15.353 15.1004 15.3566 15.0932C15.5438 14.8674 15.7598 14.6631 15.9866 14.4444C16.1414 14.2975 16.2999 14.1434 16.4547 13.9821C16.8111 13.6129 16.9983 13.1828 16.9983 12.7419C16.9983 12.2975 16.8075 11.871 16.4439 11.5125L14.4673 9.53763ZM15.7562 13.3118C15.7526 13.3154 15.7526 13.3118 15.7562 13.3118C15.6158 13.4624 15.4718 13.5986 15.317 13.7491C15.083 13.9713 14.8454 14.2043 14.6222 14.466C14.2585 14.853 13.8301 15.0358 13.2685 15.0358C13.2145 15.0358 13.1569 15.0358 13.1029 15.0323C12.0336 14.9642 11.0399 14.5484 10.2947 14.1935C8.25698 13.2115 6.46767 11.8172 4.98078 10.0502C3.75311 8.57706 2.93226 7.21505 2.38863 5.75269C2.05381 4.86022 1.9314 4.16487 1.98541 3.50896C2.02141 3.08961 2.18342 2.74194 2.48224 2.44444L3.70991 1.22222C3.88632 1.05735 4.07353 0.967742 4.25714 0.967742C4.48395 0.967742 4.66756 1.10394 4.78277 1.21864C4.78637 1.22222 4.78997 1.22581 4.79357 1.22939C5.01318 1.43369 5.222 1.64516 5.44161 1.87097C5.55322 1.98566 5.66842 2.10036 5.78363 2.21864L6.76649 3.19713C7.14811 3.57706 7.14811 3.92832 6.76649 4.30824C6.66208 4.41219 6.56128 4.51613 6.45687 4.61649C6.15445 4.92473 5.86644 5.21147 5.55322 5.49104C5.54602 5.49821 5.53882 5.50179 5.53522 5.50896C5.2256 5.8172 5.2832 6.11828 5.348 6.32258C5.3516 6.33333 5.35521 6.34409 5.35881 6.35484C5.61442 6.97133 5.97444 7.55197 6.52167 8.24373L6.52527 8.24731C7.51893 9.46595 8.56659 10.4158 9.72226 11.1434C9.86987 11.2366 10.0211 11.3118 10.1651 11.3835C10.2947 11.448 10.4171 11.509 10.5215 11.5735C10.5359 11.5806 10.5503 11.5914 10.5647 11.5986C10.6871 11.6595 10.8023 11.6882 10.9211 11.6882C11.22 11.6882 11.4072 11.5018 11.4684 11.4409L12.6996 10.2151C12.822 10.0932 13.0165 9.94624 13.2433 9.94624C13.4665 9.94624 13.6501 10.086 13.7617 10.2079C13.7653 10.2115 13.7653 10.2115 13.7689 10.2151L15.7526 12.19C16.1234 12.5556 16.1234 12.9319 15.7562 13.3118Z" fill="currentColor"/>
</svg>
