<svg width="50" height="34" viewBox="0 0 50 34" xmlns="http://www.w3.org/2000/svg">
<path d="M49.7557 14.8091L45.8248 10.9907C45.6407 7.13183 42.3498 4.04839 38.3332 4.04839H19.7057C18.5057 1.70811 15.935 0.000853511 13.5083 0.000853511H7.55248C6.81332 -0.016127 6.08002 0.221032 5.46665 0.643554L1.49919 3.38776C0.553392 4.04346 -0.00744482 5.10878 7.46667e-05 6.23319C7.46667e-05 8.15257 1.60759 9.71402 3.58336 9.71402H9.16663C11.4641 9.71402 13.3333 7.89833 13.3333 5.66648H11.6666C11.6666 7.00538 10.5449 8.09498 9.16663 8.09498H3.58336C2.52672 8.09498 1.66667 7.25962 1.66667 6.22826C1.66247 5.62521 1.96169 5.05689 2.46666 4.70798L6.43334 1.96377C6.76088 1.7379 7.13246 1.58166 7.55003 1.6197H13.5083C15.4316 1.6197 17.5766 3.17394 18.3925 5.15801C18.5191 5.46565 18.8258 5.66714 19.1666 5.66714H38.3332C41.549 5.66714 44.1664 8.20901 44.1664 11.3336C44.1664 11.5481 44.2548 11.7538 44.4106 11.9052L47.903 15.2978C47.1822 15.6969 45.9889 16.0045 44.7556 14.808L43.5773 15.9526C44.5831 16.9297 45.6247 17.2778 46.5798 17.2778C47.944 17.2778 49.1265 16.5638 49.7557 15.9534C50.0814 15.6373 50.0814 15.1257 49.7557 14.8091Z" fill="currentColor"/>
<path d="M8.33333 3.23818H6.66664V4.85722H8.33333V3.23818Z" fill="currentColor"/>
<path d="M16 22.99L13.5 26.2279C13.3917 26.3679 13.3333 26.5379 13.3333 26.7136V32.3801H11.6666V23.0061C11.6666 22.6766 11.4608 22.3795 11.1458 22.2557C8.93001 21.3855 7.49916 19.3221 7.50003 16.9996V8.90463H5.83334V16.9996C5.83246 19.7997 7.45003 22.3059 10 23.5298V33.1904C10 33.6381 10.3734 33.9999 10.8333 33.9999H14.1666C14.6266 33.9999 14.9999 33.6372 14.9999 33.1904V26.984L17.3332 23.9605L16 22.99Z" fill="currentColor"/>
<path d="M46.6656 19.429V16.191H44.999V19.429C44.999 20.7679 43.8773 21.8575 42.499 21.8575C42.1407 21.8575 41.8223 22.0809 41.7089 22.4112C41.5956 22.7415 41.7122 23.1058 41.9997 23.3146L44.9997 25.5002V32.381H43.333V26.7145C43.333 26.2668 42.9606 25.905 42.4997 25.905H40.8331C38.0756 25.905 35.8331 23.7267 35.8331 21.048V17.0005H34.1664V21.048C34.1664 24.6188 37.1572 27.5241 40.8331 27.5241H41.6664V33.1905C41.6664 33.6382 42.0388 34 42.4996 34H45.8329C46.2938 34 46.6662 33.6373 46.6646 33.1905V25.0955C46.6646 24.8406 46.5412 24.6002 46.3313 24.4479L44.3912 23.0345C45.7407 22.3634 46.6656 20.9986 46.6656 19.429Z" fill="currentColor"/>
<path d="M19.1666 22.667C16.8691 22.667 14.9999 20.8513 14.9999 18.6194V17.0004H13.3332V18.6194C13.3332 21.7433 15.9499 24.2859 19.1665 24.2859H34.9997V22.6669L19.1666 22.667Z" fill="currentColor"/>
<path d="M14.1666 3.23894V5.52904C13.1966 5.19474 12.4999 4.29458 12.4999 3.23894H10.8332C10.8332 5.4707 12.7024 7.28648 14.9999 7.28648C15.4599 7.28648 15.8332 6.92382 15.8332 6.47701V3.23904L14.1666 3.23894Z" fill="currentColor"/>
</svg>
