<svg width="30" height="20" viewBox="0 0 30 20" fill="none" xmlns="http://www.w3.org/2000/svg">
<path d="M29.8534 8.71126L27.4949 6.46511C27.3844 4.1952 25.4099 2.38141 22.9999 2.38141H11.8234C11.1034 1.00477 9.56097 0.000502065 8.10498 0.000502065H4.53149C4.08799 -0.0094865 3.64801 0.130019 3.27999 0.378561L0.899513 1.9928C0.332035 2.37851 -0.00446689 3.00516 4.48e-05 3.66658C4.48e-05 4.79563 0.964551 5.71413 2.15001 5.71413H5.49998C6.87845 5.71413 7.99998 4.64608 7.99998 3.33322H6.99997C6.99997 4.12081 6.32696 4.76175 5.49998 4.76175H2.15001C1.51603 4.76175 1 4.27036 1 3.66368C0.997481 3.30895 1.17701 2.97464 1.48 2.7694L3.86 1.15516C4.05653 1.02229 4.27948 0.930387 4.53002 0.952764H8.10498C9.25898 0.952764 10.546 1.86702 11.0355 3.03412C11.1115 3.21509 11.2955 3.33361 11.4999 3.33361H22.9999C24.9294 3.33361 26.4999 4.82883 26.4999 6.66684C26.4999 6.793 26.5529 6.91398 26.6463 7.00304L28.7418 8.99869C28.3093 9.23345 27.5933 9.41442 26.8534 8.71059L26.1464 9.38389C26.7499 9.95865 27.3748 10.1634 27.9479 10.1634C28.7664 10.1634 29.4759 9.74343 29.8534 9.38434C30.0489 9.19841 30.0489 8.89747 29.8534 8.71126Z" fill="#C00D0D"/>
<path d="M5 1.90481H3.99998V2.85719H5V1.90481Z" fill="#C00D0D"/>
<path d="M9.59999 13.5235L8.1 15.4282C8.03502 15.5106 7.99998 15.6106 7.99998 15.7139V19.0471H6.99997V13.533C6.99997 13.3392 6.87645 13.1644 6.68749 13.0916C5.358 12.5797 4.49949 11.3659 4.50002 9.99977V5.23802H3.50001V9.99977C3.49948 11.6469 4.47002 13.1211 6.00001 13.8411V19.5238C6.00001 19.7871 6.22402 19.9999 6.49999 19.9999H8.49996C8.77594 19.9999 8.99994 19.7866 8.99994 19.5238V15.8729L10.3999 14.0944L9.59999 13.5235Z" fill="#C00D0D"/>
<path d="M27.9994 11.4288V9.52412H26.9994V11.4288C26.9994 12.2164 26.3264 12.8573 25.4994 12.8573C25.2844 12.8573 25.0934 12.9888 25.0254 13.1831C24.9573 13.3774 25.0273 13.5916 25.1998 13.7145L26.9998 15.0001V19.0476H25.9998V15.7144C25.9998 15.4511 25.7764 15.2382 25.4998 15.2382H24.4998C22.8453 15.2382 21.4999 13.9569 21.4999 12.3812V10.0003H20.4998V12.3812C20.4998 14.4816 22.2943 16.1906 24.4998 16.1906H24.9998V19.5238C24.9998 19.7872 25.2233 20 25.4998 20H27.4998C27.7763 20 27.9997 19.7867 27.9987 19.5238V14.7621C27.9987 14.6121 27.9247 14.4707 27.7988 14.3811L26.6347 13.5497C27.4444 13.1549 27.9994 12.3521 27.9994 11.4288Z" fill="#C00D0D"/>
<path d="M11.4999 13.3335C10.1215 13.3335 8.99994 12.2655 8.99994 10.9526V10.0002H7.99993V10.9526C7.99993 12.7902 9.56994 14.2858 11.4999 14.2858H20.9998V13.3335L11.4999 13.3335Z" fill="#C00D0D"/>
<path d="M8.49996 1.90526V3.25238C7.91795 3.05573 7.49995 2.52623 7.49995 1.90526H6.49993C6.49993 3.21806 7.62141 4.28617 8.99994 4.28617C9.27591 4.28617 9.49992 4.07283 9.49992 3.81001V1.90532L8.49996 1.90526Z" fill="#C00D0D"/>
</svg>
