<svg width="26" height="20" viewBox="0 0 26 20" fill="none" xmlns="http://www.w3.org/2000/svg">
<path d="M4.33325 4.34794H3.46659V5.21752H4.33325V4.34794Z" fill="#C00D0D"/>
<path d="M25.969 14.1866L25.31 12.534C25.2081 12.2783 25.189 12.0018 25.2545 11.7362L25.9864 8.80141C25.9951 8.76707 25.9994 8.7314 25.9994 8.69573V7.3914H25.1327V8.64224L24.413 11.5253C24.3029 11.9709 24.3345 12.4313 24.5048 12.857L25.1045 14.3613L23.5203 19.1304H22.6186L23.3916 14.8605C23.4176 14.72 23.3725 14.5761 23.272 14.4752L21.001 12.1966C20.591 11.7861 20.3653 11.2392 20.3657 10.6566V9.56526H19.4991V10.6566C19.4986 11.4718 19.815 12.2374 20.3887 12.8122L22.4989 14.9295L21.673 19.4878C21.6496 19.6148 21.6843 19.7447 21.7666 19.8439C21.8489 19.9426 21.9707 20 22.0994 20H23.8327C24.0194 20 24.185 19.8804 24.2443 19.703L25.9776 14.4857C26.0102 14.3879 26.0072 14.2822 25.969 14.1866Z" fill="#C00D0D"/>
<path d="M22.0994 2.17405H6.01189C5.81862 1.42492 5.13919 0.86971 4.33321 0.86971H1.47937L0.739661 0.127563C0.615707 0.00278438 0.428989 -0.0341549 0.267356 0.0332018C0.105724 0.10061 0 0.259321 0 0.434948V0.917553C0 2.08972 0.950702 3.04362 2.11895 3.04362H2.63416L0.316308 6.36489C-0.0728185 6.9253 -0.104454 7.66969 0.2409 8.26968C0.570208 8.81404 1.18642 9.13926 1.7939 9.131H4.70974C4.86228 9.13273 5.00396 9.21578 5.10278 9.38316L7.7998 13.1827V19.5652C7.7998 19.8057 7.99393 20 8.23311 20H9.96638C10.1709 20 10.3473 19.857 10.3902 19.6565L11.6169 13.9131H21.6661V13.0436H11.2664C11.0619 13.0436 10.8855 13.1866 10.8426 13.387L9.61585 19.1304H8.66641V13.0436C8.66641 12.9531 8.63823 12.8649 8.58582 12.7914L5.83076 8.91319C5.60194 8.51582 5.176 8.26622 4.71451 8.26102H1.78527C1.46201 8.27539 1.15047 8.09798 0.986248 7.82626C0.813343 7.52539 0.829389 7.14668 1.02657 6.86278L3.8215 2.85847C3.91422 2.72543 3.92549 2.55195 3.85095 2.40801C3.7764 2.26453 3.62823 2.1741 3.4666 2.1741H2.11895C1.7285 2.1741 1.37969 1.99409 1.14961 1.71238C1.19729 1.73022 1.24797 1.73934 1.29997 1.73934H4.33321C4.81115 1.73934 5.19987 2.12931 5.19987 2.60891C5.19987 2.84889 5.394 3.04367 5.63317 3.04367H22.0994C23.7716 3.04367 25.1327 4.4089 25.1327 6.08711V7.44795H25.9993V6.08711C25.9993 3.9297 24.25 2.17405 22.0994 2.17405Z" fill="#C00D0D"/>
<path d="M25.1327 6.52188L25.1327 7.3914C25.1327 7.87094 24.744 8.26103 24.266 8.26103C23.788 8.26103 23.3993 7.87105 23.3993 7.39145V6.95669C23.3993 5.99754 22.622 5.21759 21.6661 5.21759H20.3661V6.08717H21.6661C22.144 6.08717 22.5327 6.47714 22.5327 6.95674V7.3915C22.5327 8.35065 23.3101 9.1306 24.266 9.1306C25.2219 9.1306 25.9994 8.35054 25.9994 7.3914L25.9993 6.52183L25.1327 6.52188Z" fill="#C00D0D"/>
</svg>
