<svg width="23" height="20" viewBox="0 0 23 20" fill="none" xmlns="http://www.w3.org/2000/svg">
<path d="M3.27751 1.91804C3.17055 1.84953 3.03448 1.83768 2.91567 1.88693L0.232354 2.99773C0.0912999 3.05587 6.38095e-05 3.1899 6.38095e-05 3.33799C6.38095e-05 3.48609 0.0912999 3.62012 0.232354 3.67826L2.91567 4.78906C2.96396 4.80906 3.01535 4.81904 3.06669 4.81904C3.14068 4.81904 3.21426 4.7983 3.27751 4.75795C3.38523 4.68944 3.45001 4.57319 3.45001 4.44879V2.2272C3.45001 2.1028 3.38523 1.98655 3.27751 1.91804ZM2.68338 3.88714L1.35666 3.33804L2.68338 2.78858V3.88714Z" fill="#C00D0D"/>
<path d="M5.75 1.85693C5.11597 1.85693 4.6 2.35532 4.6 2.96773C4.6 3.58014 5.11597 4.07853 5.75 4.07853C6.38402 4.07853 6.89999 3.58014 6.89999 2.96773C6.89999 2.35532 6.38407 1.85693 5.75 1.85693ZM5.75 3.33802C5.53878 3.33802 5.36668 3.17179 5.36668 2.96777C5.36668 2.76375 5.53878 2.59752 5.75 2.59752C5.96122 2.59752 6.13331 2.76375 6.13331 2.96777C6.13331 3.17179 5.96122 3.33802 5.75 3.33802Z" fill="#C00D0D"/>
<path d="M10.7334 16.6676H9.96667V19.6297H10.7334V16.6676Z" fill="#C00D0D"/>
<path d="M14.5667 19.2595H8.43335V20H14.5667V19.2595Z" fill="#C00D0D"/>
<path d="M13.0334 16.6676H12.2667V19.6297H13.0334V16.6676Z" fill="#C00D0D"/>
<path d="M11.5 17.7784H10.35V18.5189H11.5V17.7784Z" fill="#C00D0D"/>
<path d="M13.8 17.7784H12.65V18.5189H13.8V17.7784Z" fill="#C00D0D"/>
<path d="M3.25914 4.12852C3.14108 4.06226 2.99504 4.06187 2.87618 4.12778L0.866378 5.23897C0.340435 5.5322 0.0084628 6.07875 6.24286e-05 6.67042V6.84146C-0.00380084 7.28652 0.171753 7.70602 0.49492 8.02373C0.818088 8.34104 1.2497 8.51803 1.71351 8.52172H1.72501C2.67646 8.52172 3.45001 7.77453 3.45001 6.85552L3.45001 4.44879C3.45001 4.31701 3.37719 4.19482 3.25914 4.12852ZM2.68337 6.85552C2.68337 7.36614 2.25365 7.78117 1.72506 7.78117V8.15142L1.71702 7.78117C1.46096 7.77896 1.22135 7.68081 1.04157 7.5046C0.862156 7.32835 0.764406 7.09508 0.766742 6.84481V6.67558C0.771324 6.34864 0.956491 6.0439 1.24857 5.88097L2.68337 5.08749V6.85552Z" fill="#C00D0D"/>
<path d="M23 0.3759V0.00564899H19.55C19.5496 0.00564899 19.5496 0.00564899 19.5488 0.00564899C16.841 0.00564899 14.3381 1.53187 13.1744 3.89344L11.4999 7.29026L8.82471 1.86658C8.33098 0.817268 7.28601 0.10484 6.08848 0.00638656C5.23174 -0.0462027 4.40989 0.227418 3.76819 0.774311C3.12648 1.32155 2.74352 2.07728 2.68988 2.90149C2.6853 2.96774 2.68337 3.03439 2.68337 3.10104V8.70722C2.68607 13.2982 6.55464 17.0356 11.3083 17.0378C15.9283 17.0378 19.6784 13.0604 19.9211 9.61326C21.6495 9.43405 23 8.01666 23 6.30013V5.92988H21.7162C22.4986 5.31855 23 4.38366 23 3.33804V2.96779H21.7162C22.4986 2.35646 23 1.42152 23 0.3759ZM22.2061 3.70829C22.0194 4.96275 20.8997 5.92988 19.55 5.92988V6.67043H22.2061C22.0194 7.92489 20.8997 8.89202 19.55 8.89202H19.1666V9.26227C19.1666 12.4292 15.5403 16.2973 11.3083 16.2973C6.97744 16.2951 3.45194 12.8901 3.45005 8.70687V3.10104C3.45005 3.05032 3.45158 2.99994 3.45504 2.94848C3.49569 2.32049 3.78701 1.74587 4.27535 1.32967C4.72538 0.946441 5.29234 0.740206 5.88036 0.740206C5.93058 0.740206 5.98117 0.741682 6.03215 0.744632C6.94487 0.819785 7.74758 1.36707 8.12973 2.17903L11.5004 9.0123L13.8667 4.21179C14.9044 2.10644 17.1346 0.746108 19.5488 0.746108C19.5492 0.746108 19.5496 0.746108 19.55 0.746108H22.2061C22.0194 2.00057 20.8997 2.9677 19.55 2.9677V3.70825L22.2061 3.70829Z" fill="#C00D0D"/>
<path d="M12.65 8.89201V9.63255H17.1549C16.8015 10.7122 15.7496 11.4824 14.5467 11.4839L14.5394 12.2244C14.5421 12.2244 14.5444 12.2244 14.5475 12.2244H15.6216C15.2681 13.3053 14.2143 14.0758 13.0099 14.0758C13.0087 14.0758 13.0076 14.0758 13.0064 14.0758H11.4999C8.75221 14.0758 6.51664 11.9164 6.51664 9.26235V8.8921H5.74996V9.26235C5.74996 12.3248 8.32941 14.8163 11.4999 14.8163H13.006C13.0076 14.8163 13.0087 14.8163 13.0103 14.8163C14.7452 14.8163 16.2368 13.5656 16.4794 11.906L16.5197 11.6295C17.3078 11.1063 17.8713 10.2795 18.0127 9.3142L18.0745 8.8921L12.65 8.89201Z" fill="#C00D0D"/>
</svg>
