<svg width="66" height="46" viewBox="0 0 66 46" fill="none" xmlns="http://www.w3.org/2000/svg">
<path opacity="0.24" d="M1.44519 20.2381C4.29369 9.32283 14.1077 5.86016 19.3643 5.27809C32.2391 3.60782 42.2952 6.94835 47.6279 9.07419C57.5378 13.0246 64.9213 18.2641 64.9213 24.5622C64.107 30.1804 58.522 33.7487 47.6279 31.547C37.2797 29.4556 29.4204 41.1131 19.3643 41.7964C10.5668 42.3942 1.7203 36.7164 1.03343 25.9322C0.935166 24.3895 1.04804 21.7599 1.44519 20.2381Z" fill="#C00D0D"/>
<path d="M23.9936 19.2551C23.9936 22.5208 20.8902 25.2909 16.8986 25.2909C12.9071 25.2909 9.80371 22.5208 9.80371 19.2551C9.80371 15.9894 12.9071 13.2192 16.8986 13.2192C20.8902 13.2192 23.9936 15.9894 23.9936 19.2551Z" stroke="#C00D0D"/>
<path d="M19.3643 1.4521L19.4193 1.94915L19.4286 1.94795L19.3643 1.4521ZM1.44519 16.4121L0.961393 16.2858H0.961393L1.44519 16.4121ZM19.3643 37.9704L19.3304 37.4716L19.3643 37.9704ZM47.6279 27.721L47.5289 28.2111L47.6279 27.721ZM47.6279 5.2482L47.8131 4.78375L47.6279 5.2482ZM19.3643 44.9552L19.3982 45.4541L19.3643 44.9552ZM47.6279 34.7058L47.5289 35.1959L47.6279 34.7058ZM64.9213 27.721L64.4265 27.6493L64.9213 27.721ZM1.03343 22.1062L0.534439 22.138L1.03343 22.1062ZM2.58795 33.95L2.10381 34.0749L2.58795 33.95ZM19.3093 0.955141C13.9576 1.54773 3.88562 5.0804 0.961393 16.2858L1.92899 16.5384C4.70175 5.91329 14.2578 2.52061 19.4193 1.94907L19.3093 0.955141ZM19.3982 38.4693C22.0035 38.2922 24.4473 37.4057 26.7913 36.2338C29.128 35.0654 31.4059 33.5912 33.6458 32.2327C38.1705 29.4887 42.5662 27.2081 47.5289 28.2111L47.727 27.2309C42.3414 26.1425 37.6334 28.6449 33.1273 31.3777C30.8519 32.7576 28.6326 34.1951 26.3441 35.3394C24.0627 36.48 21.7531 37.3069 19.3304 37.4716L19.3982 38.4693ZM47.5289 28.2111C53.0334 29.3236 57.2721 28.9951 60.264 27.6151C63.2797 26.224 64.9851 23.7821 65.4162 20.8079L64.4265 20.6645C64.0433 23.3085 62.549 25.4598 59.8451 26.707C57.1174 27.9652 53.1166 28.3202 47.727 27.2309L47.5289 28.2111ZM65.4213 20.7362C65.4213 17.3762 63.4505 14.3649 60.3124 11.729C57.1701 9.08957 52.7918 6.76844 47.8131 4.78375L47.4428 5.71266C52.374 7.67841 56.6424 9.95225 59.6692 12.4947C62.7003 15.0407 64.4213 17.7981 64.4213 20.7362H65.4213ZM47.8131 4.78375C42.4432 2.6431 32.2949 -0.729606 19.3 0.956259L19.4286 1.94795C32.1833 0.293261 42.1472 3.60162 47.4428 5.71266L47.8131 4.78375ZM19.3982 45.4541C22.0035 45.2771 24.4473 44.3906 26.7913 43.2186C29.128 42.0502 31.4059 40.576 33.6458 39.2175C38.1705 36.4735 42.5662 34.1929 47.5289 35.1959L47.727 34.2157C42.3414 33.1273 37.6334 35.6297 33.1273 38.3625C30.8519 39.7424 28.6326 41.1799 26.3441 42.3242C24.0627 43.4648 21.7531 44.2918 19.3304 44.4564L19.3982 45.4541ZM47.5289 35.1959C53.0334 36.3084 57.2721 35.98 60.264 34.5999C63.2797 33.2088 64.9851 30.7669 65.4162 27.7927L64.4265 27.6493C64.0433 30.2933 62.549 32.4446 59.8451 33.6918C57.1174 34.9501 53.1166 35.305 47.727 34.2157L47.5289 35.1959ZM65.4162 27.7927C65.5117 27.1334 65.5095 25.9679 65.4876 24.7015C65.4653 23.4108 65.4213 21.9835 65.4213 20.7362H64.4213C64.4213 21.9943 64.4658 23.4488 64.4878 24.7188C64.5101 26.0131 64.5079 27.0874 64.4265 27.6493L65.4162 27.7927ZM0.53466 22.1413C0.823269 26.2461 1.40574 31.3695 2.10381 34.0749L3.07209 33.8251C2.39887 31.216 1.82057 26.1727 1.5322 22.0712L0.53466 22.1413ZM2.10381 34.0749C4.09677 41.7988 11.5125 45.9899 19.3982 45.4541L19.3304 44.4564C11.813 44.9672 4.91872 40.9818 3.07209 33.8251L2.10381 34.0749ZM0.961393 16.2858C0.54576 17.8785 0.434348 20.5665 0.534439 22.138L1.53242 22.0744C1.43599 20.5604 1.55032 17.9894 1.92899 16.5384L0.961393 16.2858ZM0.534439 22.138C1.24181 33.244 10.3721 39.0826 19.3982 38.4693L19.3304 37.4716C10.7615 38.0538 2.19879 32.5368 1.53242 22.0744L0.534439 22.138Z" fill="#C00D0D"/>
</svg>
