<svg width="51" height="65" viewBox="0 0 51 65" fill="none" xmlns="http://www.w3.org/2000/svg">
<g opacity="0.24">
<path d="M4.01938 62.7389H12.253C13.3069 62.7389 14.1805 61.992 14.3386 61.0157C14.3395 61.0099 14.3457 61.0067 14.3506 61.0099C15.2388 61.5731 17.6881 62.6472 20.1699 62.6879C22.6611 62.7287 23.7589 62.7559 25.184 62.7389H35.4232C36.9098 62.7389 38.1149 61.5734 38.1149 60.1357C38.1149 58.6981 36.9098 57.5326 35.4232 57.5326H37.2705C38.9028 57.5326 40.2261 56.2528 40.2261 54.6742C40.2261 53.0956 38.9028 51.8158 37.2705 51.8158H39.065C40.6973 51.8158 42.0206 50.5361 42.0206 48.9574C42.0206 47.3788 40.6973 46.0991 39.065 46.0991H36.6371C38.2112 46.0991 39.4872 44.865 39.4872 43.3428C39.4872 41.8205 38.2112 40.5865 36.6371 40.5865H28.0946C27.345 40.5865 26.8613 39.7871 27.1563 39.098C29.4714 33.689 27.8378 30.823 25.4088 29.9261C24.8828 29.7318 24.3619 30.1315 24.2198 30.674C23.3215 34.1025 19.9803 39.5656 14.9283 41.6248C14.4784 41.8081 13.9846 41.5759 13.6071 41.27C13.2395 40.9721 12.7666 40.7906 12.253 40.7906H8.13618H4.01938C2.85341 40.7906 1.9082 41.7047 1.9082 42.8323V49.1106V49.1616V54.0617V54.1638V60.6972C1.9082 61.8248 2.85341 62.7389 4.01938 62.7389Z" fill="#C00D0D"/>
<path d="M41.4046 6.64768C41.6593 6.11998 42.4109 6.11998 42.6655 6.64768L43.7987 8.99603C43.8995 9.20478 44.097 9.35013 44.3263 9.3842L46.8858 9.76457C47.455 9.84917 47.6847 10.5464 47.2771 10.9527L45.4052 12.8188C45.2447 12.9788 45.1716 13.2067 45.2091 13.4303L45.6482 16.0489C45.7445 16.6229 45.139 17.0568 44.6264 16.7812L42.3666 15.5662C42.1596 15.4549 41.9106 15.4549 41.7036 15.5662L39.4438 16.7812C38.9312 17.0568 38.3257 16.6229 38.4219 16.0489L38.8611 13.4303C38.8986 13.2067 38.8255 12.9788 38.6649 12.8188L36.7931 10.9527C36.3855 10.5464 36.6151 9.84917 37.1844 9.76457L39.7439 9.3842C39.9732 9.35013 40.1707 9.20478 40.2714 8.99603L41.4046 6.64768Z" fill="#C00D0D"/>
<path d="M26.0287 6.64768C26.2833 6.11998 27.0349 6.11998 27.2895 6.64768L28.4228 8.99603C28.5235 9.20478 28.721 9.35013 28.9503 9.3842L31.5098 9.76457C32.0791 9.84917 32.3087 10.5464 31.9011 10.9527L30.0292 12.8188C29.8687 12.9788 29.7956 13.2067 29.8331 13.4303L30.2722 16.0489C30.3685 16.6229 29.763 17.0568 29.2504 16.7812L26.9906 15.5662C26.7836 15.4549 26.5346 15.4549 26.3276 15.5662L24.0678 16.7812C23.5552 17.0568 22.9497 16.6229 23.046 16.0489L23.4851 13.4303C23.5226 13.2067 23.4495 12.9788 23.289 12.8188L21.4171 10.9527C21.0095 10.5464 21.2392 9.84917 21.8084 9.76457L24.3679 9.3842C24.5972 9.35013 24.7947 9.20478 24.8955 8.99603L26.0287 6.64768Z" fill="#C00D0D"/>
<path d="M10.475 6.64768C10.7296 6.11998 11.4812 6.11998 11.7358 6.64768L12.8691 8.99603C12.9698 9.20478 13.1673 9.35013 13.3966 9.3842L15.9561 9.76457C16.5254 9.84917 16.755 10.5464 16.3474 10.9527L14.4755 12.8188C14.315 12.9788 14.2419 13.2067 14.2794 13.4303L14.7185 16.0489C14.8148 16.6229 14.2093 17.0568 13.6967 16.7812L11.4369 15.5662C11.2299 15.4549 10.9809 15.4549 10.7739 15.5662L8.51413 16.7812C8.00152 17.0568 7.39601 16.6229 7.49227 16.0489L7.93142 13.4303C7.96891 13.2067 7.89581 12.9788 7.73527 12.8188L5.8634 10.9527C5.45582 10.5464 5.68545 9.84917 6.25471 9.76457L8.81421 9.3842C9.04347 9.35013 9.24101 9.20478 9.34174 8.99603L10.475 6.64768Z" fill="#C00D0D"/>
</g>
<path d="M9.23173 59.0809C9.23173 60.0617 8.45719 60.8375 7.52529 60.8375C6.59338 60.8375 5.81885 60.0617 5.81885 59.0809C5.81885 58.1001 6.59338 57.3243 7.52529 57.3243C8.45719 57.3243 9.23173 58.1001 9.23173 59.0809Z" stroke="#C00D0D"/>
<path d="M14.2629 62.0342L13.7682 61.9615L14.2629 62.0342ZM25.8306 63.9942V63.4941L25.8243 63.4942L25.8306 63.9942ZM28.0279 37.4292L28.4758 37.6513L28.0279 37.4292ZM23.6408 27.1996L23.1498 27.1051L23.6408 27.1996ZM13.788 41.5117V61.6883H14.788V41.5117H13.788ZM12.0358 63.4942H3.25221V64.4942H12.0358V63.4942ZM3.25221 63.4942C2.29553 63.4942 1.5 62.6968 1.5 61.6883H0.5C0.5 63.2268 1.72117 64.4942 3.25221 64.4942V63.4942ZM13.788 61.6883C13.788 61.7814 13.7812 61.8726 13.7682 61.9615L14.7576 62.1068C14.7777 61.97 14.788 61.8302 14.788 61.6883H13.788ZM13.7682 61.9615C13.6394 62.8379 12.9044 63.4942 12.0358 63.4942V64.4942C13.4253 64.4942 14.5603 63.4493 14.7576 62.1068L13.7682 61.9615ZM12.0358 39.7058C12.9925 39.7058 13.788 40.5031 13.788 41.5117H14.788C14.788 39.9732 13.5669 38.7058 12.0358 38.7058V39.7058ZM3.25221 38.7058C1.72117 38.7058 0.5 39.9732 0.5 41.5117H1.5C1.5 40.5031 2.29553 39.7058 3.25221 39.7058V38.7058ZM1.5 48.6599V41.5117H0.5V48.6599H1.5ZM1.5 61.6883V54.1941H0.5V61.6883H1.5ZM23.1498 27.1051C22.7621 29.1185 21.8617 31.8705 20.3384 34.3602C18.814 36.8516 16.6945 39.0357 13.8852 40.0011L14.2102 40.9469C17.317 39.8792 19.5968 37.4884 21.1914 34.8821C22.7871 32.274 23.7252 29.4054 24.1318 27.2942L23.1498 27.1051ZM24.6706 26.889C26.1231 27.3247 27.654 28.2546 28.4279 29.8473C29.1938 31.4233 29.2803 33.7781 27.5799 37.207L28.4758 37.6513C30.2608 34.0517 30.2732 31.3567 29.3274 29.4102C28.3895 27.4803 26.5709 26.415 24.958 25.9311L24.6706 26.889ZM13.9829 62.4484C14.9809 63.1228 17.6963 64.3883 20.473 64.4364L20.4903 63.4366C17.9517 63.3925 15.4217 62.2137 14.5428 61.6199L13.9829 62.4484ZM20.473 64.4364C23.1253 64.4825 24.307 64.5135 25.837 64.4941L25.8243 63.4942C24.3137 63.5133 23.1532 63.4828 20.4903 63.4366L20.473 64.4364ZM40.5894 42.0881C40.5894 43.5424 39.4409 44.7011 38.0489 44.7011V45.7011C40.0153 45.7011 41.5894 44.0723 41.5894 42.0881H40.5894ZM38.0489 39.4752C39.4409 39.4752 40.5894 40.6339 40.5894 42.0881H41.5894C41.5894 40.1039 40.0153 38.4752 38.0489 38.4752V39.4752ZM38.0489 45.7011H40.6389V44.7011H38.0489V45.7011ZM40.6389 51.1576H38.7245V52.1576H40.6389V51.1576ZM38.7245 51.1576H31.3486V52.1576H38.7245V51.1576ZM43.292 48.4294C43.292 49.9473 42.0932 51.1576 40.6389 51.1576V52.1576C42.6675 52.1576 44.292 50.4772 44.292 48.4294H43.292ZM40.6389 45.7011C42.0932 45.7011 43.292 46.9114 43.292 48.4294H44.292C44.292 46.3815 42.6675 44.7011 40.6389 44.7011V45.7011ZM38.7245 57.6141H36.7539V58.6141H38.7245V57.6141ZM36.7539 57.6141H31.3486V58.6141H36.7539V57.6141ZM41.3776 54.8859C41.3776 56.4038 40.1788 57.6141 38.7245 57.6141V58.6141C40.7531 58.6141 42.3776 56.9338 42.3776 54.8859H41.3776ZM38.7245 52.1576C40.1788 52.1576 41.3776 53.3679 41.3776 54.8859H42.3776C42.3776 52.838 40.7531 51.1576 38.7245 51.1576V52.1576ZM36.7539 63.4942H25.8306V64.4942H36.7539V63.4942ZM39.1254 61.0541C39.1254 62.4129 38.0526 63.4942 36.7539 63.4942V64.4942C38.627 64.4942 40.1254 62.9428 40.1254 61.0541H39.1254ZM36.7539 58.6141C38.0526 58.6141 39.1254 59.6954 39.1254 61.0541H40.1254C40.1254 59.1654 38.627 57.6141 36.7539 57.6141V58.6141ZM38.0489 44.7011H31.3486V45.7011H38.0489V44.7011ZM28.9422 39.4752H38.0489V38.4752H28.9422V39.4752ZM3.25221 39.7058H7.64402V38.7058H3.25221V39.7058ZM7.64402 39.7058H12.0358V38.7058H7.64402V39.7058ZM7.14402 39.2058V54.1941H8.14402V39.2058H7.14402ZM0.5 48.6023V54.3094H1.5V48.6023H0.5ZM27.5799 37.207C27.0859 38.2033 27.7609 39.4752 28.9422 39.4752V38.4752C28.5715 38.4752 28.2804 38.0454 28.4758 37.6513L27.5799 37.207ZM24.1318 27.2942C24.1956 26.9627 24.4715 26.8292 24.6706 26.889L24.958 25.9311C24.0711 25.6651 23.3004 26.3232 23.1498 27.1051L24.1318 27.2942Z" fill="#C00D0D"/>
<path d="M4.37923 0.5H48.1847C49.4872 0.5 50.5 1.49851 50.5 2.67846V21.6419C50.5 22.8219 49.4872 23.8204 48.1847 23.8204H41.7566C41.0473 23.8204 40.3714 24.1217 39.8972 24.6493L38.6845 25.9986C38.0817 26.6693 37.0275 26.6603 36.4363 25.9794L35.3092 24.6813C34.8344 24.1345 34.1457 23.8204 33.4215 23.8204H22.7348H4.37923C3.07678 23.8204 2.06396 22.8219 2.06396 21.6419V2.67846C2.06396 1.49851 3.07678 0.5 4.37923 0.5Z" stroke="#C00D0D"/>
</svg>
