<svg width="66" height="58" viewBox="0 0 66 58" fill="none" xmlns="http://www.w3.org/2000/svg">
<path opacity="0.24" d="M16.7349 34.7962L44.1934 6.18071C44.3859 5.98009 44.7051 5.97506 44.9038 6.16952L60.6086 21.5363L62.7345 23.6165C62.8922 23.7707 62.9351 24.0024 62.828 24.1952C58.5671 31.8635 41.7963 46.2916 33.7488 50.9355C33.5567 51.0464 33.3227 51.0095 33.164 50.8544L30.8535 48.5961L25.3416 43.2086C25.219 43.0888 25.0435 43.0401 24.8767 43.0797L20.728 44.0638C20.639 44.0849 20.5575 44.13 20.4924 44.1942L11.7511 52.8077C11.6795 52.8783 11.6308 52.9688 11.6115 53.0674L10.9458 56.4517C10.8886 56.7427 10.5874 56.9192 10.3056 56.8267C2.46393 54.2516 2.44574 50.3469 3.46619 48.64C3.48402 48.6102 3.5051 48.5834 3.52916 48.5583L16.7349 34.7962Z" fill="#C00D0D"/>
<path d="M15.6506 32.7093L44.9587 1.37823C45.152 1.17153 45.4783 1.16639 45.678 1.36691L62.4491 18.2005M15.6506 32.7093L1.5613 47.771C1.53772 47.7962 1.51714 47.823 1.49972 47.8528C0.407473 49.7205 0.421961 54.0051 8.82239 56.8248C9.10584 56.9199 9.41076 56.7423 9.46706 56.4486L10.1887 52.6851C10.2073 52.5877 10.2545 52.4981 10.3243 52.4276L19.6652 42.9858C19.7303 42.92 19.8124 42.8735 19.9024 42.8516L24.621 41.7034M15.6506 32.7093L24.621 41.7034M30.7104 47.8089L33.1896 50.2947C33.3494 50.4549 33.5884 50.4931 33.7832 50.378C42.3733 45.2993 60.3204 29.46 64.8361 21.0736C64.9386 20.8832 64.8968 20.6572 64.7442 20.504L62.4491 18.2005M30.7104 47.8089C44.7211 36.9858 51.7229 30.5267 62.4491 18.2005M30.7104 47.8089L24.621 41.7034" stroke="#C00D0D" stroke-linecap="round" stroke-linejoin="round"/>
<path d="M8.79672 47.5459C8.79672 48.0298 8.4029 48.4246 7.91399 48.4246C7.42507 48.4246 7.03125 48.0298 7.03125 47.5459C7.03125 47.062 7.42507 46.6672 7.91399 46.6672C8.4029 46.6672 8.79672 47.062 8.79672 47.5459Z" stroke="#C00D0D"/>
<path d="M12.0887 44.3945C12.0887 44.8784 11.6949 45.2732 11.206 45.2732C10.7171 45.2732 10.3232 44.8784 10.3232 44.3945C10.3232 43.9106 10.7171 43.5159 11.206 43.5159C11.6949 43.5159 12.0887 43.9106 12.0887 44.3945Z" stroke="#C00D0D"/>
<path d="M15.5125 41.5059C15.5125 41.9897 15.1187 42.3845 14.6298 42.3845C14.1409 42.3845 13.7471 41.9897 13.7471 41.5059C13.7471 41.022 14.1409 40.6272 14.6298 40.6272C15.1187 40.6272 15.5125 41.022 15.5125 41.5059Z" stroke="#C00D0D"/>
<path d="M47.5 9.15586C47.5 10.2391 46.6101 11.127 45.5 11.127C44.3899 11.127 43.5 10.2391 43.5 9.15586C43.5 8.07267 44.3899 7.18469 45.5 7.18469C46.6101 7.18469 47.5 8.07267 47.5 9.15586Z" stroke="#C00D0D"/>
</svg>
