<svg width="137" height="30" viewBox="0 0 137 30" xmlns="http://www.w3.org/2000/svg">
<path d="M49.483 17.9285V19.6299H46.0999V17.9285C41.7942 17.6648 38.0693 14.6916 38.0693 9.93194C38.0693 5.06168 41.9138 2.19481 46.0999 1.93109V0.22969H49.483V1.93109C53.6863 2.19481 57.5179 5.06168 57.5179 9.93194C57.5179 14.6916 53.7888 17.6648 49.483 17.9285ZM46.0999 5.10421C43.883 5.23607 41.4482 6.80561 41.4482 9.94896C41.4482 13.0923 43.883 14.6576 46.0999 14.7895V5.10421ZM54.1348 9.93194C54.1348 6.77159 51.7299 5.21906 49.483 5.0872V14.7724C51.7299 14.6406 54.1348 13.1136 54.1348 9.93194Z" fill="currentColor"/>
<path d="M68.3592 16.2442H61.9091L60.8027 19.6129H57.1035L63.6604 1.0889H66.6164L73.1733 19.6129H69.4698L68.3592 16.2442ZM67.3554 13.2965L65.1341 6.61421L62.9129 13.2965H67.3554Z" fill="currentColor"/>
<path d="M86.6886 7.29902C86.6886 10.6125 84.0445 13.5091 79.854 13.5091H78.2138V19.6129H74.8306V1.0889H79.4653C84.4674 1.0889 86.6886 3.98554 86.6886 7.29902ZM83.3055 7.29902C83.3055 5.37644 81.8788 4.245 80.0548 4.245H78.2308V10.353H80.0548C80.4709 10.3695 80.8862 10.3032 81.2763 10.1579C81.6664 10.0126 82.0234 9.79126 82.3265 9.50686C82.6296 9.22246 82.8727 8.8807 83.0415 8.50159C83.2104 8.12249 83.3016 7.71365 83.3098 7.29902H83.3055Z" fill="currentColor"/>
<path d="M108.67 1.0889V19.6129H88.803V1.0889H92.1818V16.4568H97.0472V1.0889H100.426V16.4568H105.291V1.0889H108.67Z" fill="currentColor"/>
<path d="M115.436 4.25351V8.77074H120.511V11.9311H115.436V16.4568H122.181V19.6129H112.053V1.0889H122.181V4.25351H115.436Z" fill="currentColor"/>
<path d="M136.999 7.29902C136.999 10.6125 134.355 13.5091 130.165 13.5091H128.525V19.6129H125.171V1.0889H129.772C134.778 1.0889 136.999 3.98554 136.999 7.29902ZM133.616 7.29902C133.616 5.37644 132.19 4.245 130.366 4.245H128.542V10.353H130.366C130.781 10.3689 131.196 10.3022 131.586 10.1566C131.975 10.0111 132.332 9.78963 132.635 9.50529C132.937 9.22095 133.18 8.87939 133.348 8.50057C133.517 8.12175 133.608 7.71328 133.616 7.29902Z" fill="currentColor"/>
<path d="M20.7865 17.2395L19.9322 15.9932C20.13 15.4017 20.2352 14.7833 20.244 14.1599L25.4297 9.98724C26.4173 9.19056 27.1609 8.13423 27.5761 6.93807C27.9914 5.74192 28.0617 4.45383 27.7791 3.21991L27.9585 3.09655C28.0652 3.02078 28.145 2.91324 28.1865 2.78942C28.2279 2.6656 28.2289 2.53187 28.1891 2.40749C27.9609 1.72889 27.6373 1.0859 27.228 0.497661L26.8607 0L16.9549 6.87792L17.3051 7.37559L16.0237 8.26457C15.4472 8.0748 14.8452 7.97298 14.2381 7.96257L10.0477 2.81157C9.24913 1.82738 8.1893 1.086 6.98868 0.671699C5.78805 0.257396 4.49479 0.186783 3.25588 0.467886L3.132 0.293492C3.05728 0.185651 2.94937 0.104928 2.82455 0.0634966C2.69972 0.0220652 2.56476 0.0221726 2.44 0.0638026C1.75797 0.287844 1.112 0.608748 0.522057 1.01659L0.0137376 1.36538L6.92944 11.2293L7.42922 10.8805L8.28354 12.1225C8.08562 12.7155 7.98045 13.3352 7.97171 13.96L2.80736 18.1327C1.81669 18.9264 1.06968 19.9811 0.651313 21.1767C0.23295 22.3724 0.160046 23.6609 0.440897 24.8958L0.26149 25.0191C0.153191 25.0935 0.0721241 25.201 0.0305166 25.3253C-0.0110909 25.4496 -0.010983 25.584 0.030824 25.7082C0.255514 26.3883 0.579343 27.0317 0.991932 27.618L1.3422 28.1157L11.2608 21.2378L10.9106 20.7401L12.192 19.8511C12.769 20.0388 13.3707 20.1406 13.9776 20.1531L18.168 25.3084C18.9677 26.291 20.0278 27.031 21.2282 27.4445C22.4286 27.8579 23.7213 27.9284 24.9598 27.6478L25.0837 27.8265C25.1598 27.9327 25.2678 28.0122 25.3921 28.0535C25.5165 28.0948 25.6508 28.0957 25.7757 28.0561C26.4572 27.8289 27.1029 27.5067 27.6936 27.0991L28.2062 26.7546L21.2863 16.8907L20.7865 17.2395ZM16.139 16.0783H12.0767V12.0374H16.139V16.0783Z" fill="currentColor"/>
<path d="M41.3414 25.9464L42.8364 23.6878H43.8317V28.239H42.9774V24.8703H42.8962L41.5251 26.9162H41.0979L39.7353 24.8703H39.6456V28.239H38.7912V23.6835H39.8036L41.3414 25.9464Z" fill="currentColor"/>
<path d="M48.1759 26.5674C47.7926 26.7454 47.377 26.8439 46.9543 26.8567L45.9163 28.239H44.8654L46.1469 26.6865C45.8438 26.605 45.5782 26.4217 45.3951 26.1676C45.2067 25.9114 45.1091 25.6003 45.1175 25.2829C45.1134 25.0589 45.1586 24.8368 45.2499 24.6321C45.3472 24.4314 45.4942 24.2587 45.677 24.1302C45.8683 23.9788 46.0874 23.8661 46.3221 23.7984C46.5996 23.7186 46.8875 23.6799 47.1764 23.6835H49.0815V28.239H48.2272L48.1759 26.5674ZM47.1892 24.4151C46.8697 24.3922 46.5516 24.4744 46.2836 24.6491C46.1849 24.722 46.1056 24.8179 46.0527 24.9284C45.9999 25.0389 45.975 25.1606 45.9803 25.2829C45.9715 25.4038 45.9931 25.5251 46.043 25.6357C46.093 25.7464 46.1698 25.8429 46.2665 25.9166C46.4879 26.0873 46.7647 26.1706 47.044 26.1506C47.4414 26.1556 47.8328 26.0527 48.1759 25.8528V24.4151H47.1892Z" fill="currentColor"/>
<path d="M53.4086 24.4704C53.156 24.3767 52.888 24.3305 52.6184 24.3343C52.4097 24.3337 52.2027 24.3712 52.0075 24.4449C51.8153 24.512 51.6396 24.6191 51.4923 24.7592C51.3449 24.8994 51.2293 25.0692 51.1532 25.2573C51.0681 25.4696 51.026 25.6966 51.0293 25.9251C51.0083 26.3678 51.1616 26.8012 51.4565 27.1331C51.6088 27.2845 51.7913 27.4024 51.9921 27.4793C52.193 27.5562 52.4077 27.5904 52.6227 27.5798C52.8911 27.5775 53.1571 27.5285 53.4086 27.4351C53.6455 27.3386 53.8594 27.1937 54.0365 27.0098L54.5662 27.5542C54.3281 27.8265 54.0257 28.0355 53.6863 28.1625C52.9957 28.4078 52.2411 28.4078 51.5505 28.1625C51.2654 28.0492 51.0088 27.8749 50.7987 27.6521C50.5857 27.4398 50.4261 27.1804 50.3331 26.8949C50.2239 26.5979 50.169 26.2839 50.1708 25.9677C50.164 25.6298 50.231 25.2946 50.3672 24.9851C50.4731 24.7079 50.6361 24.4558 50.8457 24.245C51.0664 24.0343 51.328 23.8707 51.6146 23.7644C51.9183 23.6479 52.2416 23.5902 52.5671 23.5942C52.934 23.5862 53.2991 23.6468 53.6436 23.7729C53.949 23.878 54.2254 24.0528 54.4509 24.2833L53.9682 24.8533C53.8055 24.6942 53.6161 24.5646 53.4086 24.4704Z" fill="currentColor"/>
<path d="M56.4842 25.5508H58.9617V23.6835H59.8502V28.239H58.9617V26.2994H56.4842V28.239H55.5957V23.6835H56.4842V25.5508Z" fill="currentColor"/>
<path d="M64.4122 23.7558C64.706 23.8643 64.9748 24.0307 65.2025 24.245C65.4247 24.4596 65.5981 24.7193 65.7108 25.0064C65.8309 25.3142 65.8917 25.6417 65.8902 25.9719C65.8919 26.2961 65.828 26.6172 65.7023 26.9162C65.5833 27.2011 65.4091 27.4598 65.1897 27.6776C64.9643 27.8949 64.6969 28.0642 64.4037 28.1752C64.0861 28.2964 63.7485 28.357 63.4084 28.3539C63.061 28.362 62.7154 28.3013 62.3918 28.1752C62.0995 28.0702 61.832 27.9066 61.6058 27.6946C61.3827 27.4773 61.2094 27.2147 61.0975 26.9247C60.9774 26.6184 60.9166 26.2922 60.9181 25.9634C60.9174 25.6388 60.9782 25.317 61.0975 25.0149C61.2151 24.7237 61.3943 24.4611 61.6229 24.245C61.8433 24.0225 62.1102 23.8512 62.4046 23.7431C62.7254 23.6228 63.0656 23.5623 63.4084 23.5644C63.7523 23.5625 64.0933 23.6275 64.4122 23.7558ZM62.7335 24.4364C62.5465 24.515 62.3768 24.6291 62.2337 24.7724C62.0889 24.9231 61.9782 25.103 61.9091 25.2999C61.8287 25.5118 61.7896 25.737 61.7938 25.9634C61.7896 26.1913 61.8287 26.4179 61.9091 26.6312C61.9829 26.8233 62.0931 26.9995 62.2337 27.1502C62.3812 27.2931 62.5534 27.4084 62.742 27.4904C63.1744 27.6436 63.6467 27.6436 64.079 27.4904C64.2669 27.4093 64.4379 27.2939 64.5831 27.1502C64.7268 27.0026 64.8361 26.8255 64.9035 26.6312C64.9853 26.4181 65.0259 26.1915 65.0231 25.9634C65.0269 25.7394 64.9863 25.5168 64.9035 25.3084C64.8306 25.1181 64.7218 24.9434 64.5831 24.7937C64.4393 24.6422 64.2645 24.5233 64.0705 24.4449C63.8603 24.3599 63.6354 24.3165 63.4084 24.3173C63.1783 24.3187 62.9501 24.359 62.7335 24.4364Z" fill="currentColor"/>
<path d="M70.4224 24.9724L67.7953 28.239H66.9795V23.6835H67.8338V27.0055L70.495 23.6835H71.281V28.239H70.4266L70.4224 24.9724ZM68.671 22.0247C68.7298 22.0826 68.8 22.1276 68.8772 22.1569C68.9545 22.1862 69.037 22.1991 69.1195 22.1948C69.2021 22.1999 69.2849 22.1874 69.3623 22.158C69.4396 22.1287 69.5098 22.0832 69.568 22.0247C69.6322 21.9657 69.6833 21.894 69.7179 21.8141C69.7525 21.7342 69.7698 21.648 69.7688 21.561H70.495C70.4892 21.7515 70.4472 21.9391 70.3711 22.114C70.3026 22.272 70.2056 22.4162 70.0849 22.5393C69.9594 22.6487 69.8146 22.7338 69.6577 22.7903C69.4914 22.8533 69.3145 22.8836 69.1366 22.8796C68.9574 22.8836 68.779 22.8533 68.6112 22.7903C68.4505 22.7423 68.304 22.6561 68.1841 22.5393C68.0568 22.4216 67.9588 22.276 67.8979 22.114C67.8222 21.9395 67.7844 21.7511 67.7868 21.561H68.4873C68.4839 21.6468 68.4984 21.7323 68.53 21.8122C68.5617 21.892 68.6097 21.9644 68.671 22.0247Z" fill="currentColor"/>
<path d="M77.7866 25.9464L79.2816 23.6878H80.2812V28.239H79.4269V24.8703H79.3457L77.9745 26.9162H77.5474L76.1805 24.8703H76.0908V28.239H75.2578V23.6835H76.2702L77.7866 25.9464Z" fill="currentColor"/>
<path d="M82.558 23.7006C82.8736 23.6134 83.2001 23.5718 83.5276 23.5772C84.0903 23.5293 84.6496 23.7017 85.0867 24.0578C85.257 24.2373 85.3888 24.4494 85.474 24.6812C85.5592 24.913 85.596 25.1597 85.5822 25.4062V27.0778C85.5694 27.2264 85.6037 27.3752 85.6805 27.5032C85.7136 27.5392 85.7538 27.5681 85.7987 27.5878C85.8435 27.6076 85.892 27.6179 85.9411 27.618C86.0053 27.6188 86.0691 27.6073 86.129 27.584L86.2102 28.2433C86.0669 28.3083 85.9104 28.3389 85.7531 28.3326C85.5498 28.3417 85.3495 28.2817 85.185 28.1625C85.0948 28.0895 85.0212 27.9983 84.9689 27.8949C84.9167 27.7915 84.8869 27.6783 84.8817 27.5627C84.6747 27.8314 84.404 28.0447 84.0939 28.1835C83.7838 28.3223 83.4439 28.3823 83.1047 28.3581C82.6443 28.3847 82.1896 28.2458 81.8232 27.9668C81.6643 27.8269 81.5397 27.6525 81.459 27.4571C81.3782 27.2617 81.3436 27.0505 81.3576 26.8396C81.3519 26.6286 81.3988 26.4194 81.4943 26.2308C81.5897 26.0423 81.7306 25.8802 81.9044 25.7593C82.3494 25.4764 82.8723 25.3395 83.3995 25.3679C83.6402 25.365 83.8807 25.3864 84.1171 25.4317C84.3263 25.4726 84.5331 25.5251 84.7365 25.5891V25.3424C84.7458 25.2051 84.7251 25.0674 84.6757 24.9388C84.6263 24.8103 84.5494 24.694 84.4503 24.598C84.192 24.4082 83.873 24.319 83.5532 24.3471C83.0114 24.3485 82.4785 24.4845 82.0026 24.7427L81.6524 24.1174C81.9303 23.9318 82.2359 23.7912 82.558 23.7006ZM83.4123 26.0613C83.0926 26.0332 82.7723 26.1077 82.4982 26.2739C82.4145 26.3442 82.3473 26.4318 82.3012 26.5306C82.2551 26.6294 82.2312 26.7371 82.2312 26.846C82.2312 26.955 82.2551 27.0626 82.3012 27.1614C82.3473 27.2602 82.4145 27.3478 82.4982 27.4181C82.7313 27.556 83.0006 27.6211 83.2713 27.6053C83.4651 27.6074 83.6581 27.5801 83.8437 27.5245C84.0095 27.4625 84.1672 27.3811 84.3136 27.282C84.4406 27.1816 84.5465 27.0573 84.6254 26.9162C84.7058 26.7751 84.7457 26.6147 84.7407 26.4526V26.2569C84.3182 26.1171 83.8745 26.0509 83.4294 26.0613H83.4123Z" fill="currentColor"/>
<path d="M87.9572 24.513C88.1344 24.2047 88.3968 23.9537 88.7133 23.7899C89.0327 23.6419 89.382 23.5691 89.7342 23.5772C90.038 23.5742 90.3396 23.6291 90.6227 23.7388C90.8824 23.8453 91.1179 24.003 91.3147 24.2025C91.5014 24.4179 91.6462 24.666 91.7419 24.9341C91.8443 25.2486 91.8947 25.5775 91.8914 25.9081C91.9033 26.2706 91.8332 26.6311 91.6863 26.963C91.5686 27.2433 91.394 27.4965 91.1735 27.7065C90.953 27.9166 90.6913 28.0791 90.4049 28.1838C90.1185 28.2926 89.8143 28.3474 89.5078 28.3454C89.2412 28.3484 88.9754 28.3155 88.7176 28.2476C88.4695 28.1774 88.2354 28.0652 88.0256 27.9158V30H87.1713V23.6835H87.859L87.9572 24.513ZM89.448 27.5883C89.6688 27.5911 89.888 27.5506 90.093 27.4692C90.2812 27.3952 90.4505 27.2804 90.5885 27.1331C90.7284 26.9763 90.8371 26.7944 90.9089 26.5972C90.9914 26.3681 91.0305 26.1258 91.0242 25.8826C91.0244 25.671 90.9942 25.4604 90.9345 25.2573C90.8737 25.0753 90.7763 24.9074 90.6483 24.7639C90.5238 24.6265 90.3708 24.5176 90.1998 24.4449C90.0147 24.3619 89.8133 24.3212 89.6104 24.3258C89.2593 24.3175 88.9153 24.4252 88.6322 24.6321C88.3612 24.8575 88.1562 25.1513 88.0384 25.4828V27.1076C88.4351 27.4311 88.9354 27.6017 89.448 27.5883Z" fill="currentColor"/>
<path d="M93.8777 25.4785L94.732 25.3977L96.1459 23.6963H97.2309L95.4752 25.7507L97.4487 28.2518H96.3808L94.7832 26.2059H93.8777V28.2518H93.0234V23.6835H93.8777V25.4785Z" fill="currentColor"/>
<path d="M99.4948 27.2225C99.8149 27.4666 100.211 27.5901 100.614 27.5712C100.903 27.5708 101.19 27.5307 101.468 27.4522C101.737 27.3633 101.99 27.2342 102.22 27.0693L102.617 27.6861C102.336 27.9104 102.018 28.0859 101.678 28.205C101.327 28.2988 100.965 28.346 100.601 28.3454C100.248 28.3522 99.897 28.2975 99.5632 28.1838C99.2742 28.0836 99.0103 27.9227 98.7892 27.7121C98.5681 27.5015 98.395 27.246 98.2817 26.963C98.1649 26.6458 98.1084 26.3097 98.1151 25.9719C98.1115 25.6443 98.1724 25.3192 98.2945 25.0149C98.4062 24.7246 98.5781 24.4609 98.7989 24.2411C99.0197 24.0212 99.2844 23.8501 99.576 23.7388C99.8997 23.6186 100.243 23.558 100.588 23.5602C100.889 23.5578 101.187 23.6097 101.468 23.7133C101.724 23.8033 101.955 23.9486 102.147 24.1387C102.335 24.329 102.481 24.5565 102.575 24.8065C102.683 25.0771 102.738 25.3659 102.737 25.6572C102.737 25.755 102.737 25.8443 102.737 25.9422C102.728 26.0325 102.712 26.122 102.69 26.2101H99.0036C99.0134 26.403 99.062 26.5919 99.1464 26.7658C99.2307 26.9396 99.3492 27.0949 99.4948 27.2225ZM101.541 24.6704C101.409 24.5515 101.254 24.4608 101.086 24.4038C100.918 24.3467 100.74 24.3245 100.563 24.3386C100.194 24.3275 99.833 24.4448 99.5418 24.6704C99.2779 24.9003 99.1064 25.2176 99.0591 25.5636H101.891C101.895 25.2318 101.77 24.9114 101.541 24.6704Z" fill="currentColor"/>
<path d="M107.82 24.4364H106.133V28.239H105.253V24.4364H103.544V23.6835H107.816L107.82 24.4364Z" fill="currentColor"/>
</svg>
